<svg width="15" height="14" viewBox="0 0 15 14" fill="none" xmlns="http://www.w3.org/2000/svg">
<path d="M9.96646 7.49653C10.6825 6.9569 11.2051 6.21691 11.4617 5.37951C11.7182 4.5421 11.6959 3.64893 11.3978 2.82425C11.0997 1.99956 10.5407 1.28438 9.79853 0.778197C9.05636 0.272014 8.16793 0 7.25684 0C6.34576 0 5.45733 0.272014 4.71515 0.778197C3.97298 1.28438 3.41396 1.99956 3.11588 2.82425C2.8178 3.64893 2.79547 4.5421 3.05201 5.37951C3.30854 6.21691 3.83119 6.9569 4.54722 7.49653C3.32028 7.96738 2.24973 8.74835 1.4497 9.75616C0.649674 10.764 0.150157 11.9609 0.00440539 13.2192C-0.0061449 13.3111 0.00229944 13.4041 0.0292561 13.4928C0.0562127 13.5816 0.101154 13.6643 0.161513 13.7365C0.283415 13.8821 0.46072 13.9754 0.654422 13.9958C0.848125 14.0162 1.04236 13.9621 1.19439 13.8453C1.34643 13.7285 1.44381 13.5587 1.46512 13.3731C1.62549 12.0056 2.30626 10.7425 3.37735 9.82534C4.44844 8.90815 5.83476 8.40112 7.27145 8.40112C8.70813 8.40112 10.0945 8.90815 11.1655 9.82534C12.2366 10.7425 12.9174 12.0056 13.0778 13.3731C13.0976 13.545 13.1833 13.7038 13.3181 13.8188C13.453 13.9338 13.6276 13.9968 13.8081 13.9958H13.8885C14.0799 13.9747 14.2549 13.8819 14.3753 13.7378C14.4957 13.5937 14.5517 13.4098 14.5312 13.2262C14.3847 11.9643 13.8825 10.7643 13.0784 9.75497C12.2743 8.7456 11.1985 7.96489 9.96646 7.49653ZM7.25684 6.99981C6.67904 6.99981 6.11421 6.83569 5.63379 6.5282C5.15336 6.22071 4.77891 5.78366 4.5578 5.27232C4.33668 4.76098 4.27883 4.19832 4.39155 3.65549C4.50428 3.11265 4.78251 2.61403 5.19108 2.22267C5.59965 1.83131 6.1202 1.56478 6.6869 1.45681C7.2536 1.34883 7.841 1.40425 8.37482 1.61605C8.90864 1.82786 9.36491 2.18653 9.68592 2.64672C10.0069 3.10692 10.1783 3.64796 10.1783 4.20143C10.1783 4.9436 9.87047 5.65538 9.3226 6.18018C8.77473 6.70498 8.03165 6.99981 7.25684 6.99981Z" fill="white"/>
</svg>
