<svg width="24" height="24" viewBox="0 0 24 24" fill="none" xmlns="http://www.w3.org/2000/svg">
<path d="M22.6218 11.9359C22.6218 17.8376 17.8376 22.6218 11.9359 22.6218C6.03425 22.6218 1.25 17.8376 1.25 11.9359C1.25 6.03425 6.03425 1.25 11.9359 1.25C17.8376 1.25 22.6218 6.03425 22.6218 11.9359Z" fill="#1C1C1C" stroke="#28AC63" stroke-width="0.5"/>
<path d="M0.75 12C0.75 18.2035 5.79652 23.25 12 23.25C18.2035 23.25 23.25 18.2035 23.25 12C23.25 5.79652 18.2035 0.75 12 0.75C5.79652 0.75 0.75 5.79652 0.75 12ZM1.46743 12C1.46743 6.19256 6.19256 1.46743 12 1.46743C17.8074 1.46743 22.5326 6.19256 22.5326 12C22.5326 17.8074 17.8074 22.5326 12 22.5326C6.19255 22.5326 1.46743 17.8074 1.46743 12Z" fill="#1C1C1C" stroke="#28AC63" stroke-width="0.5"/>
<path d="M9.74513 17.0328L9.74516 17.0328C9.83469 17.1522 9.95079 17.2492 10.0843 17.3159C10.2178 17.3827 10.365 17.4175 10.5142 17.4175L9.74513 17.0328ZM9.74513 17.0328L6.77382 13.0709C6.69807 12.9699 6.64295 12.855 6.61162 12.7327C6.58028 12.6104 6.57335 12.4831 6.59121 12.3581C6.60907 12.2331 6.65138 12.1128 6.71571 12.0042C6.78004 11.8955 6.86515 11.8006 6.96616 11.7249C7.06717 11.6491 7.18212 11.594 7.30443 11.5627C7.42675 11.5314 7.55404 11.5244 7.67903 11.5423C7.80402 11.5601 7.92427 11.6024 8.03292 11.6668C8.14156 11.7311 8.23647 11.8162 8.31222 11.9172L8.31223 11.9172M9.74513 17.0328L8.31223 11.9172M8.31223 11.9172L10.2562 14.509L10.4682 14.7916M8.31223 11.9172L10.4682 14.7916M10.4682 14.7916L10.6642 14.4976M10.4682 14.7916L10.6642 14.4976M11.3144 16.9892L17.2569 8.07546L11.3144 16.9892ZM11.3144 16.9892C11.3144 16.9892 11.3144 16.9893 11.3144 16.9893C11.229 17.1172 11.1143 17.2228 10.9797 17.2973C10.8455 17.3715 10.6955 17.4126 10.5422 17.4171L11.3144 16.9892ZM10.6642 14.4976L15.6568 7.00873L10.6642 14.4976ZM16.2683 6.59967C16.0183 6.64958 15.7984 6.79667 15.6569 7.00861L16.2683 6.59967ZM16.2683 6.59967C16.5182 6.54976 16.7778 6.60115 16.9899 6.74255M16.2683 6.59967L16.9899 6.74255M16.9899 6.74255C17.202 6.88395 17.3493 7.10378 17.3993 7.35373M16.9899 6.74255L17.3993 7.35373M17.3993 7.35373C17.4494 7.60362 17.3982 7.86316 17.257 8.07533L17.3993 7.35373Z" fill="#28AC63" stroke="#28AC63" stroke-width="0.5"/>
<g opacity="0.1">
<path d="M22.6218 11.9359C22.6218 17.8376 17.8376 22.6218 11.9359 22.6218C6.03425 22.6218 1.25 17.8376 1.25 11.9359C1.25 6.03425 6.03425 1.25 11.9359 1.25C17.8376 1.25 22.6218 6.03425 22.6218 11.9359Z" fill="#1C1C1C" stroke="#28AC63" stroke-width="0.5"/>
<path d="M0.75 12C0.75 18.2035 5.79652 23.25 12 23.25C18.2035 23.25 23.25 18.2035 23.25 12C23.25 5.79652 18.2035 0.75 12 0.75C5.79652 0.75 0.75 5.79652 0.75 12ZM1.46743 12C1.46743 6.19256 6.19256 1.46743 12 1.46743C17.8074 1.46743 22.5326 6.19256 22.5326 12C22.5326 17.8074 17.8074 22.5326 12 22.5326C6.19255 22.5326 1.46743 17.8074 1.46743 12Z" fill="#1C1C1C" stroke="#28AC63" stroke-width="0.5"/>
</g>
</svg>
