<svg width="16" height="16" viewBox="0 0 16 16" fill="none" xmlns="http://www.w3.org/2000/svg">
<path d="M14.4184 7.95922C14.4184 11.5266 11.5266 14.4184 7.95922 14.4184C4.39189 14.4184 1.5 11.5266 1.5 7.95922C1.5 4.39189 4.39189 1.5 7.95922 1.5C11.5266 1.5 14.4184 4.39189 14.4184 7.95922Z" fill="#B50000" stroke="white"/>
<path d="M0.5 8C0.5 12.1359 3.86405 15.5 8 15.5C12.1359 15.5 15.5 12.1359 15.5 8C15.5 3.86405 12.1359 0.5 8 0.5C3.86405 0.5 0.5 3.86405 0.5 8ZM1.63837 8C1.63837 4.49263 4.49263 1.63837 8 1.63837C11.5074 1.63837 14.3616 4.49263 14.3616 8C14.3616 11.5074 11.5074 14.3616 8 14.3616C4.49263 14.3616 1.63837 11.5074 1.63837 8Z" fill="#B50000" stroke="white"/>
<path d="M6.83766 10.9988L6.83759 10.9987L4.94676 8.47755C4.94676 8.47755 4.94676 8.47755 4.94675 8.47754C4.92541 8.44908 4.90988 8.41669 4.90105 8.38223C4.89222 8.34776 4.89027 8.31189 4.8953 8.27667C4.90034 8.24145 4.91226 8.20756 4.93039 8.17695L4.50589 7.92558L4.93039 8.17694C4.94851 8.14633 4.9725 8.11959 5.00096 8.09824C5.02943 8.07689 5.06182 8.06136 5.09629 8.05253C5.13076 8.0437 5.16663 8.04175 5.20185 8.04678C5.23707 8.05181 5.27095 8.06373 5.30157 8.08186C5.33218 8.09999 5.35893 8.12397 5.38028 8.15244L5.3803 8.15247L6.61735 9.80174L7.04137 10.3671L7.43336 9.77908L10.6104 5.01359C10.6104 5.01354 10.6105 5.01348 10.6105 5.01343C10.6504 4.95377 10.7123 4.91237 10.7827 4.89832C10.8531 4.88425 10.9263 4.89873 10.9861 4.93858C11.0458 4.97843 11.0873 5.04038 11.1015 5.11082C11.1155 5.18115 11.1012 5.2542 11.0615 5.31396C11.0614 5.31404 11.0614 5.31413 11.0613 5.31421L7.27984 10.9864C7.27983 10.9864 7.27982 10.9864 7.27981 10.9865C7.25576 11.0225 7.2234 11.0523 7.18547 11.0733L7.42753 11.5108L7.18547 11.0733C7.14826 11.0939 7.10674 11.1054 7.06426 11.107L7.05429 11.1071C7.01224 11.1071 6.97078 11.0973 6.93318 11.0785C6.89558 11.0597 6.86288 11.0324 6.83766 10.9988Z" fill="white" stroke="white"/>
<path d="M14.4184 7.95922C14.4184 11.5266 11.5266 14.4184 7.95922 14.4184C4.39189 14.4184 1.5 11.5266 1.5 7.95922C1.5 4.39189 4.39189 1.5 7.95922 1.5C11.5266 1.5 14.4184 4.39189 14.4184 7.95922Z" fill="#B50000" stroke="white"/>
<path d="M0.5 8C0.5 12.1359 3.86405 15.5 8 15.5C12.1359 15.5 15.5 12.1359 15.5 8C15.5 3.86405 12.1359 0.5 8 0.5C3.86405 0.5 0.5 3.86405 0.5 8ZM1.63837 8C1.63837 4.49263 4.49263 1.63837 8 1.63837C11.5074 1.63837 14.3616 4.49263 14.3616 8C14.3616 11.5074 11.5074 14.3616 8 14.3616C4.49263 14.3616 1.63837 11.5074 1.63837 8Z" fill="#B50000" stroke="white"/>
<path d="M10.3751 10.3751C10.619 10.1312 10.619 9.74663 10.3751 9.50271L8.83074 7.95833L10.3751 6.41395C10.619 6.17003 10.619 5.78546 10.3751 5.54153C10.1312 5.29761 9.74663 5.29761 9.50271 5.54153L7.95833 7.08591L6.41395 5.54153C6.17003 5.29761 5.78546 5.29761 5.54153 5.54153C5.29761 5.78546 5.29761 6.17003 5.54153 6.41395L7.08591 7.95833L5.54153 9.50271C5.29761 9.74663 5.29761 10.1312 5.54153 10.3751C5.66519 10.4988 5.81892 10.5535 5.97774 10.5535C6.13656 10.5535 6.29029 10.4988 6.41395 10.3751L7.95833 8.83074L9.50271 10.3751C9.62636 10.4988 9.78009 10.5535 9.93891 10.5535C10.0977 10.5535 10.2515 10.4988 10.3751 10.3751Z" fill="white" stroke="white" stroke-width="0.4"/>
</svg>
