<svg width="15" height="16" viewBox="0 0 15 16" fill="none" xmlns="http://www.w3.org/2000/svg">
<path d="M5.55494 14.14V11.9933C5.55492 11.4472 5.99003 11.0036 6.52911 10.9999H8.5038C9.04546 10.9999 9.48456 11.4447 9.48456 11.9933V14.1466C9.48443 14.6102 9.84975 14.9891 10.3073 15H11.6238C12.9361 15 14 13.9225 14 12.5933V6.48649C13.993 5.96358 13.7506 5.47254 13.3418 5.15312L8.83949 1.47971C8.05075 0.840096 6.92951 0.840096 6.14076 1.47971L1.65823 5.15979C1.24786 5.47792 1.00505 5.96977 1 6.49315V12.5933C1 13.9225 2.06386 15 3.3762 15H4.69266C5.16161 15 5.54177 14.615 5.54177 14.14" stroke="white" stroke-width="1.5" stroke-linecap="round" stroke-linejoin="round"/>
</svg>
