<svg width="40" height="40" viewBox="0 0 40 40" fill="none" xmlns="http://www.w3.org/2000/svg">
<circle cx="20" cy="20" r="19.5" fill="url(#paint0_linear_1043_2)" stroke="#353535"/>
<path d="M25.8476 22.0339L24.5549 20.7341V17.5311C24.5721 16.3417 24.1584 15.1863 23.3901 14.2782C22.6219 13.37 21.551 12.7705 20.3753 12.5903C19.6929 12.5004 18.9992 12.5571 18.3405 12.7566C17.6817 12.956 17.0731 13.2937 16.5552 13.747C16.0374 14.2004 15.6221 14.7589 15.3372 15.3854C15.0523 16.012 14.9042 16.692 14.903 17.3803V20.7341L13.6103 22.0339C13.4479 22.199 13.3378 22.4083 13.2938 22.6356C13.2497 22.8629 13.2736 23.0982 13.3625 23.312C13.4514 23.5258 13.6013 23.7086 13.7936 23.8377C13.9858 23.9667 14.2118 24.0362 14.4434 24.0375H16.8563V24.2817C16.8899 25.0108 17.2111 25.6968 17.7495 26.1895C18.288 26.6822 18.9998 26.9413 19.7289 26.9101C20.4581 26.9413 21.1699 26.6822 21.7084 26.1895C22.2468 25.6968 22.568 25.0108 22.6015 24.2817V24.0375H25.0145C25.2461 24.0362 25.4721 23.9667 25.6643 23.8377C25.8566 23.7086 26.0065 23.5258 26.0954 23.312C26.1843 23.0982 26.2082 22.8629 26.1641 22.6356C26.12 22.4083 26.0099 22.199 25.8476 22.0339ZM21.1652 24.2817C21.1254 24.6271 20.9538 24.9439 20.6863 25.166C20.4187 25.388 20.0758 25.4983 19.7289 25.4738C19.3821 25.4983 19.0392 25.388 18.7716 25.166C18.504 24.9439 18.3325 24.6271 18.2926 24.2817V24.0375H21.1652V24.2817ZM15.0682 22.6012L15.9156 21.7538C16.05 21.6202 16.1566 21.4613 16.2293 21.2863C16.3021 21.1113 16.3394 20.9236 16.3393 20.7341V17.3803C16.3397 16.8958 16.4437 16.4171 16.6443 15.9761C16.845 15.5352 17.1377 15.1422 17.5027 14.8237C17.8628 14.4974 18.2895 14.2533 18.7532 14.1082C19.217 13.9632 19.7067 13.9206 20.1886 13.9835C21.0191 14.1183 21.7729 14.5487 22.3113 15.1953C22.8497 15.8419 23.1364 16.6612 23.1186 17.5024V20.7341C23.1175 20.9231 23.1537 21.1105 23.2252 21.2855C23.2967 21.4605 23.402 21.6196 23.5351 21.7538L24.3897 22.6012H15.0682Z" fill="white"/>
<defs>
<linearGradient id="paint0_linear_1043_2" x1="20" y1="0" x2="20.5556" y2="14.4444" gradientUnits="userSpaceOnUse">
<stop stop-color="#7C6767"/>
<stop offset="1" stop-color="#1C1C1C"/>
</linearGradient>
</defs>
</svg>
