<svg width="22" height="22" viewBox="0 0 22 22" fill="none" xmlns="http://www.w3.org/2000/svg">
<path d="M11 0C9.68367 0 8.39667 0.230083 7.17383 0.683833L7.49283 1.54321C8.61523 1.1271 9.80296 0.914919 11 0.916667C16.56 0.916667 21.0833 5.43996 21.0833 11C21.0833 16.56 16.56 21.0833 11 21.0833C5.43996 21.0833 0.916667 16.56 0.916667 11C0.917547 9.51436 1.24669 8.04726 1.88055 6.70363C2.51442 5.35999 3.43734 4.17302 4.58333 3.22758V6.41667H5.5V1.83333H0.916667V2.75H3.72442C2.55402 3.78233 1.61663 5.05185 0.974493 6.47425C0.332359 7.89664 0.000175862 9.43937 0 11C0 17.0651 4.93488 22 11 22C17.0651 22 22 17.0651 22 11C22 4.93488 17.0651 0 11 0Z" fill="#F4AD22"/>
<path d="M8.25004 14.6665H7.33337V15.5832H14.6667V14.6665H13.75V13.1018L11.6481 10.9998L13.75 8.89792V7.33317H14.6667V6.4165H7.33337V7.33317H8.25004V8.89792L10.352 10.9998L8.25004 13.1018V14.6665ZM9.16671 8.51842V7.33317H12.8334V8.51842L11 10.3518L9.16671 8.51842ZM11 11.6479L12.8334 13.4813V14.6665H9.16671V13.4813L11 11.6479ZM8.25004 17.4165H9.16671V18.3332H8.25004V17.4165ZM10.5417 17.4165H11.4584V18.3332H10.5417V17.4165ZM12.8334 17.4165H13.75V18.3332H12.8334V17.4165Z" fill="#F4AD22"/>
</svg>
