<svg width="20" height="14" viewBox="0 0 20 14" fill="none" xmlns="http://www.w3.org/2000/svg">
<path d="M19.7403 12.2569L19.4361 10.4401C19.4257 9.55053 18.8273 8.79253 17.9691 8.58536L17.3573 8.35375C17.3533 8.35192 17.3491 8.35041 17.3449 8.34924L16.5253 8.04206L16.4744 8.02288C16.3653 7.98215 16.2711 7.91082 16.2037 7.81792C16.1363 7.72502 16.0987 7.61473 16.0957 7.50101V7.4807L16.0984 7.47882C16.4145 7.21574 16.6689 6.88953 16.8442 6.5223C17.0805 6.46027 17.2785 6.30009 17.414 6.05758C17.5163 5.86743 17.5788 5.65935 17.5978 5.44547C17.6033 5.35289 17.5864 5.26035 17.5482 5.1754C17.51 5.09044 17.4517 5.01549 17.3781 4.95668C17.3098 3.38504 16.1814 2.13111 14.8048 2.13111C14.1751 2.13111 13.5887 2.39957 13.1347 2.8485C12.7251 1.20505 11.4172 0 9.87113 0C8.35128 0 7.02483 1.19302 6.60482 2.85489C6.15315 2.40371 5.56482 2.13111 4.92244 2.13111C3.64194 2.13111 2.54249 3.24179 2.3653 4.71492C2.35372 4.8123 2.346 4.91081 2.34252 5.00932C2.24524 5.11384 2.13444 5.27251 2.1495 5.44472C2.18579 5.91019 2.42822 6.38732 2.89147 6.50726C3.07407 6.8928 3.34556 7.2321 3.68479 7.49875L3.6902 7.50289C3.6885 7.61301 3.65138 7.71984 3.58406 7.80833C3.51675 7.89683 3.42263 7.96253 3.31496 7.99619L3.30261 8.00032L2.48613 8.26013L2.46065 8.26803L1.7457 8.4955C0.904898 8.71508 0.317728 9.47195 0.308849 10.3465L0.00348879 12.2592C-0.00298369 12.2994 -0.000429161 12.3405 0.0109764 12.3796C0.022382 12.4188 0.0423675 12.4551 0.0695562 12.486C0.096745 12.5169 0.130491 12.5417 0.168469 12.5587C0.206447 12.5757 0.247755 12.5845 0.289546 12.5844H3.46436L3.29103 13.6748C3.28469 13.715 3.28734 13.756 3.2988 13.7951C3.31025 13.8342 3.33025 13.8705 3.35741 13.9013C3.38457 13.9322 3.41826 13.957 3.45618 13.974C3.49409 13.9911 3.53533 13.9999 3.57709 14H16.1883C16.2303 14 16.2718 13.9911 16.3098 13.9739C16.3479 13.9568 16.3817 13.9317 16.4089 13.9006C16.4361 13.8694 16.456 13.8329 16.4672 13.7935C16.4785 13.7541 16.4808 13.7129 16.474 13.6725L16.291 12.5844H19.4566C19.4985 12.5843 19.5399 12.5754 19.578 12.5582C19.6161 12.541 19.6498 12.516 19.677 12.4849C19.7041 12.4537 19.724 12.4172 19.7353 12.3779C19.7466 12.3385 19.7489 12.2972 19.7422 12.2569H19.7403ZM16.2227 8.93766L16.5026 8.63951L16.7547 8.73388L15.6938 9.89531C15.5983 9.73736 15.4852 9.59019 15.3564 9.45653C15.6892 9.36576 15.9893 9.18602 16.2227 8.93766ZM14.8329 8.9606C14.7719 8.95958 14.711 8.95417 14.6507 8.94443C14.5013 8.87227 14.3448 8.81495 14.1836 8.77336C14.0723 8.70569 13.9723 8.62174 13.8871 8.52445L13.7327 8.34698C13.9081 8.20984 14.0369 8.02445 14.1025 7.81496C14.328 7.91169 14.5712 7.96286 14.8175 7.96535C15.0751 7.96419 15.3296 7.9108 15.5649 7.80857C15.6327 8.03575 15.7717 8.23662 15.9625 8.38308L15.7973 8.55904C15.6751 8.68908 15.5259 8.79218 15.3595 8.86144C15.1931 8.9307 15.0134 8.96451 14.8325 8.9606H14.8329ZM14.8044 2.69698C15.656 2.69698 16.3848 3.34406 16.6717 4.25245C16.1825 3.79525 15.6749 3.51401 14.8426 3.56777C14.3454 3.53769 13.903 3.75577 13.6524 3.97121C13.6032 4.01346 13.5575 4.05948 13.5158 4.10882C13.4619 3.98264 13.3754 3.87216 13.2648 3.7881C13.2625 3.72381 13.259 3.66027 13.2544 3.59672C13.6273 3.0459 14.1882 2.69698 14.804 2.69698H14.8044ZM13.3243 5.18603C13.3463 5.14655 13.366 5.10708 13.3841 5.06797L13.6204 4.96758C13.7016 4.93283 13.7713 4.87663 13.8215 4.80534C13.8717 4.73405 13.9005 4.65051 13.9045 4.56415C13.9176 4.44759 14.3268 4.09453 14.8198 4.13138C14.8343 4.13232 14.8489 4.13232 14.8634 4.13138C15.7567 4.06784 16.1393 4.48632 16.8322 5.24619L16.8496 5.26499C16.8813 5.31087 16.9259 5.34679 16.9782 5.36839C16.994 5.3783 17.0078 5.39106 17.0187 5.40599C17.0049 5.539 16.9656 5.66832 16.9029 5.78724C16.8064 5.95945 16.6994 5.98313 16.6276 5.98614C16.5721 5.98835 16.5183 6.00613 16.4729 6.03734C16.4274 6.06855 16.3921 6.11187 16.3713 6.16211C16.2317 6.50281 16.0099 6.80576 15.7247 7.04531C15.7042 7.06223 15.6826 7.07877 15.6606 7.09456C15.6392 7.1058 15.6194 7.11984 15.6019 7.1363C15.3731 7.30044 15.0978 7.39159 14.8136 7.39723C14.5619 7.39723 14.2956 7.30888 14.0415 7.14118C14.0302 7.1319 14.0179 7.12371 14.0049 7.11674C13.9771 7.09757 13.9497 7.07914 13.9234 7.05734C13.6197 6.81739 13.385 6.50478 13.2424 6.15007C13.2219 6.09915 13.1866 6.05514 13.1408 6.02343C13.095 5.99172 13.0407 5.97367 12.9846 5.97148C12.8413 5.96584 12.7529 5.86056 12.695 5.74212C12.9541 5.65414 13.1675 5.46539 13.3239 5.18603H13.3243ZM7.38733 9.01888L7.27151 8.8839L7.14875 8.73839L7.65061 8.57822L7.70311 8.5613L8.09919 9.01249C8.4437 9.40688 8.9123 9.67942 9.43219 9.78778C9.5845 9.81976 9.73966 9.83714 9.89545 9.83967H9.93868C10.049 9.84042 10.1593 9.83389 10.2687 9.82011C10.827 9.74508 11.3409 9.48242 11.7214 9.07753L11.7465 9.05084C11.7581 9.04708 11.7697 9.04407 11.7813 9.04106L11.7979 9.03617L12.341 8.86322L12.5873 8.78501L12.7977 8.71809L12.6985 8.82675L12.497 9.04783L10.6637 11.0556L9.95412 11.8328L9.85607 11.9403L9.79276 11.8651L9.06159 11.0003L7.38733 9.01888ZM8.29993 7.17953C8.30112 7.3536 8.24537 7.52352 8.14078 7.66467C8.03618 7.80582 7.88816 7.91087 7.71816 7.9646L7.70427 7.96911L7.02367 8.18569L6.64458 8.04356L6.59362 8.02438C6.48464 7.98359 6.39052 7.91224 6.32318 7.81934C6.25584 7.72645 6.2183 7.61619 6.2153 7.50251V7.48258L6.218 7.48033C6.53391 7.21712 6.78811 6.89093 6.96345 6.52381C7.15012 6.47239 7.31409 6.36227 7.42979 6.21061C7.64921 6.5544 7.92685 6.85951 8.2509 7.11298C8.26635 7.12502 8.28217 7.13705 8.29839 7.15058L8.29993 7.17953ZM8.84657 7.47807C9.1709 7.63411 9.52716 7.717 9.88888 7.72058C10.2663 7.7181 10.638 7.63046 10.9748 7.46454C11.0522 7.8359 11.2766 8.16265 11.5994 8.37406L11.4215 8.56205L11.2972 8.69478C11.2374 8.75862 11.1729 8.81806 11.1041 8.87262L11.0764 8.89443C11.0466 8.91736 11.0161 8.93917 10.9852 8.95947C10.9698 8.97 10.9544 8.98015 10.9385 8.98993C10.872 9.03211 10.8026 9.0698 10.7308 9.10273L10.6949 9.11889L10.6587 9.13431C10.6459 9.13995 10.6328 9.14521 10.62 9.1501C10.264 9.28772 9.87259 9.3132 9.50089 9.22297C9.12918 9.13273 8.79586 8.93131 8.54777 8.64702L8.26133 8.32555C8.56022 8.12636 8.76917 7.82298 8.84502 7.47807H8.84657ZM12.6047 8.18644L12.1028 7.99844C11.9354 7.93609 11.7908 7.82673 11.6873 7.68421C11.5838 7.5417 11.5261 7.37246 11.5215 7.19796L11.5191 7.12276L11.5616 7.08855C11.8612 6.84134 12.1187 6.54946 12.3244 6.22377C12.4383 6.36342 12.5949 6.46405 12.7715 6.51102C12.9543 6.89641 13.2258 7.23565 13.5648 7.50251L13.5706 7.50702C13.5685 7.61701 13.5312 7.72362 13.464 7.81199C13.3967 7.90035 13.3028 7.96606 13.1953 7.99995L13.183 8.00408L12.6047 8.18644ZM7.07425 3.48881V3.47753C7.27885 1.81679 8.47828 0.565866 9.86881 0.565866C11.1841 0.565866 12.2916 1.6521 12.6004 3.11583C11.8623 2.36009 11.1636 1.86942 9.92054 1.95026C9.27392 1.90815 8.69833 2.19127 8.37289 2.47251C8.12776 2.68419 7.98376 2.9237 7.96562 3.14929L7.09779 3.51777L7.06768 3.53055C7.07077 3.51814 7.07232 3.50348 7.07425 3.48881ZM6.81251 4.33066C6.81946 4.3205 6.82795 4.30998 6.83683 4.29907C6.86076 4.27125 6.88856 4.24117 6.91674 4.21448L7.32595 4.04039L8.22002 3.66064C8.31275 3.6209 8.39224 3.55672 8.44953 3.47534C8.50683 3.39397 8.53965 3.29862 8.5443 3.20005C8.5443 3.15456 8.59332 3.03988 8.75855 2.89701C8.98786 2.69886 9.4237 2.48003 9.89931 2.5165C9.91383 2.51744 9.9284 2.51744 9.94293 2.5165C11.1084 2.43341 11.6508 2.92069 12.4827 3.82345L12.7035 4.06483L12.7332 4.09717C12.7665 4.14734 12.8153 4.18591 12.8726 4.20733C12.8949 4.22205 12.9157 4.2388 12.9348 4.25734C12.949 4.26904 12.9607 4.28351 12.9689 4.29982C12.9772 4.31613 12.9818 4.33393 12.9826 4.35209C12.9735 4.45205 12.9544 4.5509 12.9255 4.64724C12.8984 4.74058 12.8611 4.83082 12.8143 4.91645L12.8078 4.92773C12.6348 5.22852 12.424 5.23679 12.3538 5.2398C12.3195 5.24128 12.2858 5.24867 12.2542 5.26161C12.2188 5.27583 12.1867 5.29679 12.1598 5.32326C12.1329 5.34974 12.1117 5.38119 12.0974 5.41576C12.0794 5.45938 12.0601 5.50262 12.0395 5.54548C11.8438 5.97174 11.5538 6.35062 11.1902 6.65503C11.159 6.68022 11.1265 6.70541 11.0933 6.73023C11.0662 6.74348 11.0416 6.76102 11.0204 6.78211C10.6633 7.02764 10.2718 7.1581 9.88618 7.1581C9.52253 7.1581 9.13957 7.03139 8.77631 6.79076C8.76117 6.77813 8.74474 6.76704 8.72728 6.75767H8.72496C8.68636 6.73098 8.64776 6.70316 8.61185 6.67496C8.22045 6.3665 7.91024 5.97156 7.70697 5.52292C7.68844 5.48232 7.67107 5.44133 7.65447 5.40035C7.63857 5.36059 7.61354 5.3249 7.58128 5.29603C7.54903 5.26716 7.51041 5.24587 7.4684 5.23379C7.44524 5.22671 7.42123 5.22267 7.39698 5.22175C7.14566 5.2116 6.99588 5.03376 6.90709 4.8405C6.84277 4.69276 6.8014 4.53651 6.78433 4.3769C6.79223 4.36067 6.80166 4.34519 6.81251 4.33066ZM4.9209 2.69811C5.55131 2.69811 6.11454 3.05229 6.48051 3.605C6.47356 3.68734 6.46932 3.77043 6.467 3.85315C6.44345 3.87721 6.41836 3.90391 6.39404 3.93323C6.0107 3.67004 5.57331 3.52905 4.95912 3.5689C4.4619 3.53882 4.01949 3.7569 3.76934 3.97234C3.58983 4.12725 3.47826 4.30359 3.44969 4.47579L2.95324 4.68559C3.12928 3.54559 3.96197 2.69698 4.92167 2.69698L4.9209 2.69811ZM3.36167 6.15195C3.34112 6.10102 3.30579 6.05702 3.26 6.02531C3.21421 5.9936 3.15994 5.97555 3.1038 5.97336C2.82314 5.96208 2.74632 5.56729 2.72895 5.44171C2.7479 5.41604 2.76894 5.39189 2.79188 5.36952L3.73768 4.96758C3.81895 4.93283 3.88862 4.87663 3.93883 4.80534C3.98904 4.73405 4.01778 4.65051 4.02181 4.56415C4.03493 4.44759 4.44452 4.09453 4.93711 4.13138C4.95164 4.13232 4.96621 4.13232 4.98074 4.13138C5.51811 4.09378 5.86864 4.22914 6.21607 4.50963C6.27668 4.93938 6.50715 5.53646 7.05379 5.72408C7.04375 5.74626 7.03333 5.76807 7.02136 5.78912C6.92485 5.96133 6.8183 5.98501 6.74611 5.98802C6.69054 5.99028 6.63682 6.00807 6.59137 6.03928C6.54591 6.07048 6.51064 6.11378 6.48978 6.16399C6.35019 6.50469 6.1284 6.80764 5.84316 7.04719C5.8227 7.06373 5.80185 7.0799 5.78023 7.09569C5.75822 7.1072 5.73795 7.12162 5.72001 7.13855C5.49134 7.30264 5.21607 7.39367 4.9321 7.39911C4.68078 7.39911 4.41403 7.31075 4.16001 7.14306C4.14787 7.13332 4.13496 7.12452 4.12141 7.11674C4.09438 7.0987 4.06775 7.07915 4.04188 7.05922C3.7384 6.81918 3.50403 6.50658 3.36167 6.15195ZM6.07826 8.3812L5.93774 8.5316L5.5818 8.64439C5.32696 8.70975 5.08463 8.81475 4.86415 8.95534C4.52972 8.92751 4.22007 8.77226 4.0025 8.52332L3.84809 8.34586C4.02361 8.20888 4.15252 8.02343 4.21792 7.81383C4.44332 7.9106 4.68655 7.96177 4.93287 7.96423C5.19047 7.96307 5.445 7.90967 5.68025 7.80744C5.74842 8.03436 5.88754 8.23492 6.07826 8.3812ZM3.30415 8.59401L3.56242 8.88954C3.76911 9.12604 4.03508 9.30647 4.3345 9.41329C4.21978 9.54466 4.11903 9.68701 4.03377 9.83816L3.04975 8.67522L3.30415 8.59401ZM3.78941 10.4382C3.73569 10.6436 3.7077 10.8546 3.70602 11.0665L3.55431 12.0204H2.42591V10.6691C2.42591 10.5943 2.3954 10.5226 2.3411 10.4697C2.28681 10.4168 2.21316 10.3871 2.13637 10.3871C2.05959 10.3871 1.98594 10.4168 1.93164 10.4697C1.87735 10.5226 1.84684 10.5943 1.84684 10.6691V12.0204H0.627334L0.88328 10.4115C0.885603 10.3972 0.886764 10.3828 0.886754 10.3683C0.886754 9.73852 1.30291 9.19221 1.89857 9.04069L1.91517 9.0358L2.45833 8.86284L3.78941 10.4379V10.4382ZM13.969 13.4341V11.6267C13.969 11.552 13.9385 11.4802 13.8842 11.4273C13.8299 11.3745 13.7562 11.3448 13.6794 11.3448C13.6026 11.3448 13.529 11.3745 13.4747 11.4273C13.4204 11.4802 13.3899 11.552 13.3899 11.6267V13.4341H6.37551V11.4974C6.37551 11.4226 6.34501 11.3509 6.29071 11.298C6.23641 11.2451 6.16277 11.2154 6.08598 11.2154C6.00919 11.2154 5.93554 11.2451 5.88125 11.298C5.82695 11.3509 5.79644 11.4226 5.79644 11.4974V13.4341H3.91526L4.05037 12.5844L4.14032 12.0204L4.28161 11.1319C4.28379 11.1178 4.28483 11.1034 4.2847 11.0891V11.0255C4.29251 10.7828 4.3448 10.5435 4.43912 10.3187C4.56804 10.0066 4.77795 9.73245 5.04829 9.52308C5.25166 9.36601 5.48632 9.25181 5.73738 9.1877C5.74317 9.1877 5.74858 9.18469 5.75437 9.18319L6.25622 9.02377L6.56042 8.92676L6.62682 9.00534L6.99781 9.44412L9.17355 12.0189L9.62329 12.5513C9.62591 12.5546 9.62875 12.5578 9.63178 12.5607C9.63603 12.5652 9.64027 12.5697 9.6449 12.5739C9.64783 12.577 9.65106 12.5799 9.65456 12.5825C9.6615 12.5885 9.66845 12.5942 9.67579 12.5994L9.69702 12.6133L9.70011 12.6152L9.72134 12.6261C9.73229 12.6314 9.74365 12.6358 9.75531 12.6393C9.76122 12.6416 9.76729 12.6434 9.77346 12.6449L9.78967 12.6483H9.79855L9.8194 12.6509H9.87113C9.87593 12.6507 9.88071 12.6501 9.88541 12.6491L9.89853 12.6472L9.9105 12.6446C9.91771 12.643 9.92504 12.6412 9.93251 12.6389C9.93984 12.6367 9.94679 12.634 9.95412 12.631H9.9576C9.96173 12.6294 9.96573 12.6276 9.96957 12.6254C9.97652 12.6225 9.98324 12.6191 9.98964 12.6152C9.99591 12.6118 10.002 12.6081 10.0078 12.6039L10.0178 12.5968C10.0211 12.595 10.0243 12.5929 10.0271 12.5904L10.0367 12.5821C10.0437 12.5757 10.0506 12.569 10.0572 12.5618C10.0574 12.5612 10.0574 12.5606 10.0572 12.56L10.0649 12.5513L10.5506 12.0197L11.723 10.7357L12.0407 10.3879L12.863 9.48548L13.2525 9.05911L13.2695 9.04031L13.9454 9.29373L13.9508 9.29561C14.108 9.38053 14.2771 9.4426 14.4527 9.47984C14.8154 9.67529 15.1048 9.97819 15.2788 10.3446C15.4086 10.6181 15.4759 10.9157 15.4761 11.2169C15.4762 11.232 15.4775 11.2471 15.4799 11.262L15.6066 12.0189L15.7011 12.5829L15.8432 13.4326L13.969 13.4341ZM17.8973 12.0204V10.7646C17.8973 10.6898 17.8668 10.6181 17.8125 10.5652C17.7582 10.5123 17.6846 10.4826 17.6078 10.4826C17.531 10.4826 17.4574 10.5123 17.4031 10.5652C17.3488 10.6181 17.3183 10.6898 17.3183 10.7646V12.0204H16.1987L16.0605 11.1932C16.0585 10.9466 16.0211 10.7015 15.9494 10.4649L17.3333 8.95045L17.7811 9.11814C17.7938 9.12268 17.8066 9.12645 17.8197 9.12942C18.4316 9.27079 18.8594 9.81936 18.8594 10.4638C18.8594 10.4789 18.8605 10.494 18.8628 10.5089L19.1161 12.0204H17.8973Z" fill="white"/>
</svg>
