<svg width="34" height="34" viewBox="0 0 34 34" fill="none" xmlns="http://www.w3.org/2000/svg">
<rect width="34" height="34" rx="17" fill="#840714"/>
<path opacity="0.4" d="M16.9262 18.0189C19.7735 18.0189 22.0816 15.739 22.0816 12.9267C22.0816 10.1143 19.7735 7.83447 16.9262 7.83447C14.0789 7.83447 11.7708 10.1143 11.7708 12.9267C11.7708 15.739 14.0789 18.0189 16.9262 18.0189Z" fill="white"/>
<path d="M25.166 23.1186C25.1706 23.0461 25.1706 22.9735 25.166 22.901C25.1456 22.6332 25.0696 22.3716 24.9422 22.131C24.441 21.1517 23.036 20.708 21.8636 20.4569C21.0271 20.2828 20.1773 20.1709 19.3219 20.1221L18.427 20.0552H18.0243H17.5231H16.3238H15.8227H15.42L14.525 20.1221C13.6697 20.1709 12.8198 20.2828 11.9833 20.4569C10.811 20.6746 9.40589 21.1265 8.90472 22.131C8.77738 22.3716 8.70138 22.6332 8.68098 22.901C8.67633 22.9735 8.67633 23.0461 8.68098 23.1186C8.67668 23.1911 8.67668 23.2638 8.68098 23.3362C8.70532 23.6018 8.78433 23.8604 8.91367 24.0979C9.41484 25.0772 10.8199 25.5208 11.9923 25.7719C12.8303 25.9379 13.6795 26.0498 14.5339 26.1067L15.4289 26.1653H15.6437H15.8316H18.0332H18.2211H18.4359L19.3309 26.1067C20.1853 26.0498 21.0345 25.9379 21.8725 25.7719C23.0449 25.5459 24.45 25.1023 24.9512 24.0979C25.0745 23.8529 25.1502 23.5893 25.1749 23.3195C25.176 23.2524 25.1731 23.1854 25.166 23.1186Z" fill="white"/>
</svg>
