<svg width="24" height="24" viewBox="0 0 24 24" fill="none" xmlns="http://www.w3.org/2000/svg">
<path d="M22.6218 11.9359C22.6218 17.8376 17.8376 22.6218 11.9359 22.6218C6.03425 22.6218 1.25 17.8376 1.25 11.9359C1.25 6.03425 6.03425 1.25 11.9359 1.25C17.8376 1.25 22.6218 6.03425 22.6218 11.9359Z" fill="#1C1C1C" stroke="#B50000" stroke-width="0.5"/>
<path d="M0.75 12C0.75 18.2035 5.79652 23.25 12 23.25C18.2035 23.25 23.25 18.2035 23.25 12C23.25 5.79652 18.2035 0.75 12 0.75C5.79652 0.75 0.75 5.79652 0.75 12ZM1.46743 12C1.46743 6.19256 6.19256 1.46743 12 1.46743C17.8074 1.46743 22.5326 6.19256 22.5326 12C22.5326 17.8074 17.8074 22.5326 12 22.5326C6.19255 22.5326 1.46743 17.8074 1.46743 12Z" fill="#1C1C1C" stroke="#B50000" stroke-width="0.5"/>
<path d="M9.745 17.0337L9.74504 17.0338C9.83456 17.1532 9.95067 17.2501 10.0842 17.3169C10.2176 17.3837 10.3649 17.4184 10.5141 17.4184L9.745 17.0337ZM9.745 17.0337L6.7737 13.0719C6.7737 13.0719 6.7737 13.0719 6.77369 13.0719C6.69794 12.9709 6.64283 12.856 6.6115 12.7337C6.58016 12.6113 6.57323 12.484 6.59109 12.3591C6.60895 12.2341 6.65125 12.1138 6.71559 12.0052C6.77992 11.8965 6.86502 11.8016 6.96604 11.7259C7.06705 11.6501 7.182 11.595 7.30431 11.5637C7.42663 11.5323 7.55391 11.5254 7.67891 11.5433C7.8039 11.5611 7.92415 11.6034 8.03279 11.6677C8.14144 11.7321 8.23635 11.8172 8.3121 11.9182L8.31211 11.9182M9.745 17.0337L8.31211 11.9182M8.31211 11.9182L10.256 14.5099L10.4681 14.7926M8.31211 11.9182L10.4681 14.7926M10.4681 14.7926L10.6641 14.4986M10.4681 14.7926L10.6641 14.4986M10.6641 14.4986L15.6567 7.00971L10.6641 14.4986ZM11.3143 16.9902L17.2568 8.07643L11.3143 16.9902ZM11.3143 16.9902C11.2289 17.1182 11.1142 17.2238 10.9796 17.2983M11.3143 16.9902L10.9796 17.2983M10.9796 17.2983C10.8454 17.3725 10.6954 17.4136 10.5421 17.4181L10.9796 17.2983ZM17.3992 7.3547C17.4493 7.6046 17.3981 7.86414 17.2569 8.0763L15.6568 7.00958C15.7983 6.79764 16.0182 6.65056 16.2681 6.60065C16.5181 6.55074 16.7777 6.60213 16.9898 6.74352C17.2019 6.88492 17.3491 7.10476 17.3992 7.3547L17.6443 7.3056L17.3992 7.3547Z" fill="#B50000" stroke="#B50000" stroke-width="0.5"/>
<path d="M22.6218 11.9359C22.6218 17.8376 17.8376 22.6218 11.9359 22.6218C6.03425 22.6218 1.25 17.8376 1.25 11.9359C1.25 6.03425 6.03425 1.25 11.9359 1.25C17.8376 1.25 22.6218 6.03425 22.6218 11.9359Z" fill="#1C1C1C" stroke="#B50000" stroke-width="0.5"/>
<path d="M0.75 12C0.75 18.2035 5.79652 23.25 12 23.25C18.2035 23.25 23.25 18.2035 23.25 12C23.25 5.79652 18.2035 0.75 12 0.75C5.79652 0.75 0.75 5.79652 0.75 12ZM1.46743 12C1.46743 6.19256 6.19256 1.46743 12 1.46743C17.8074 1.46743 22.5326 6.19256 22.5326 12C22.5326 17.8074 17.8074 22.5326 12 22.5326C6.19255 22.5326 1.46743 17.8074 1.46743 12Z" fill="#1C1C1C" stroke="#B50000" stroke-width="0.5"/>
<path d="M15.6877 15.6869C16.0459 15.3287 16.0459 14.7651 15.6877 14.4069L13.2153 11.9346L15.6877 9.46224C16.0459 9.10404 16.0459 8.54042 15.6877 8.18222C15.3295 7.82402 14.7659 7.82402 14.4077 8.18222L11.9353 10.6546L9.46298 8.18222C9.10478 7.82402 8.54116 7.82402 8.18296 8.18222C7.82476 8.54042 7.82476 9.10404 8.18296 9.46224L10.6553 11.9346L8.18296 14.4069C7.82476 14.7651 7.82476 15.3287 8.18296 15.6869C8.36418 15.8682 8.58891 15.9484 8.82297 15.9484C9.05702 15.9484 9.28175 15.8682 9.46298 15.6869L11.9353 13.2146L14.4077 15.6869C14.5889 15.8682 14.8136 15.9484 15.0477 15.9484C15.2817 15.9484 15.5064 15.8682 15.6877 15.6869Z" fill="#B50000" stroke="#B50000" stroke-width="0.5"/>
</svg>
