<svg width="30" height="42" viewBox="0 0 30 42" fill="none" xmlns="http://www.w3.org/2000/svg">
<path d="M20.4315 2.7748L20.4317 2.77097V2.76713V1.72034C20.4317 1.66938 20.4267 1.61854 20.4167 1.56857L20.4082 1.52574C20.378 1.37485 20.2956 1.23944 20.1754 1.14331C20.0594 1.05054 19.9153 1 19.7669 1H19.6527C19.5233 1 19.3953 1.02561 19.2759 1.07535L18.7313 1.30228L18.7281 1.30366L17.0331 2.06346L17.0321 2.06392L15.631 2.70613L15.6294 2.70683L12.0657 4.28419L12.0642 4.28489L10.6624 4.92737L10.6615 4.92781L8.96832 5.6868L8.96749 5.68717L7.50714 6.32969L7.50431 6.331L5.63403 7.20769L5.62849 7.21027L5.62324 7.21338L4.62964 7.79783L4.62465 7.80078L4.61995 7.80413L3.88967 8.32577C3.82527 8.37178 3.76476 8.42301 3.7088 8.47897L3.14234 9.04545L3.13773 9.05004L3.1336 9.05509L2.60759 9.698L2.60354 9.70294L2.6 9.70827L2.13243 10.4096L2.12791 10.4164L2.12428 10.4237L1.52842 11.6154C1.49397 11.6843 1.46511 11.7558 1.44213 11.8294L1.18129 12.6641L1.17879 12.6721L1.17733 12.6804L1.02186 13.5613C1.00732 13.6438 1 13.7273 1 13.811V15.4376C1 15.5322 1.00935 15.6266 1.0279 15.7194L1.23632 16.7615L1.23792 16.7695L1.24049 16.7772L1.55698 17.7267C1.58201 17.8017 1.6132 17.8746 1.65023 17.9446L2.12567 18.8426L2.12957 18.85L2.13439 18.8568L2.77129 19.7591C2.81848 19.8259 2.87129 19.8887 2.92915 19.9465L3.66836 20.6857L3.67387 20.6912L3.68001 20.6961L4.41251 21.2716C4.47529 21.3209 4.5421 21.3649 4.61219 21.4032L5.15933 21.7016L5.1614 21.7027L5.16346 21.7038L6.09862 22.1713L6.10321 22.1736L6.10797 22.1756L8.26963 23.0519L8.27049 23.0523L9.96456 23.7533L9.966 23.7539L11.7184 24.4548L11.7194 24.4552L17.7553 26.9271C17.8053 26.9476 17.8507 26.9777 17.8888 27.0158L17.92 27.0472C17.9763 27.1034 18.008 27.1799 18.008 27.2593V27.3132C18.008 27.38 17.9745 27.4425 17.9189 27.4796C17.9076 27.4871 17.8956 27.4934 17.883 27.4986L15.4595 28.4794L15.4593 28.4796L13.589 29.2394L13.5863 29.2404L10.0815 30.7593L10.0795 30.7601L8.38808 31.46L6.11014 32.336L6.10982 32.3363L3.24592 33.4466L3.24539 33.4468L1.60888 34.0898L1.65665 34.2115L1.60359 34.0921C1.23655 34.2552 1 34.6191 1 35.0209V36.5908C1 36.6548 1.0103 36.7183 1.03051 36.7789C1.0597 36.8664 1.10888 36.9461 1.17416 37.0114L1.18158 37.0187C1.30142 37.1386 1.46397 37.206 1.63346 37.206H1.78707C1.90994 37.206 2.03177 37.1836 2.14659 37.1397L3.22276 36.7298L3.22438 36.7292L6.32204 35.5019L6.32342 35.5013L15.031 31.9363L15.032 31.936L16.7844 31.2351L16.785 31.2348L18.6553 30.4748L18.66 30.473L18.6646 30.4707L19.4759 30.0652C19.5665 30.0197 19.652 29.9651 19.731 29.9019L20.0658 29.6341C20.1691 29.5513 20.2605 29.4549 20.3375 29.3473L20.4647 29.1691C20.5083 29.108 20.5471 29.0434 20.5807 28.9763L20.9108 28.3161C20.9776 28.1826 21.0231 28.0394 21.0458 27.8921L21.1064 27.4984C21.1248 27.3787 21.128 27.2572 21.116 27.1368L21.0865 26.8423C21.0774 26.7508 21.0595 26.6604 21.033 26.5724L20.9262 26.2162C20.9025 26.1372 20.872 26.0603 20.8351 25.9865L20.6682 25.6528C20.6135 25.5433 20.545 25.4413 20.4644 25.3492L20.1656 25.0077L20.1605 25.0019L20.1547 24.9966L19.6868 24.5755C19.6016 24.4989 19.5076 24.4327 19.4068 24.3784L18.785 24.0436L18.7785 24.0401L18.7716 24.0373L15.8502 22.8688L15.8492 22.8684L13.2785 21.8167L13.278 21.8165L7.78641 19.5965L6.71016 19.1122C6.656 19.0878 6.60377 19.0594 6.55393 19.0271L5.79676 18.5372C5.70527 18.478 5.62246 18.4064 5.55069 18.3243L5.26498 17.9978L4.8126 17.3946C4.77027 17.3382 4.73312 17.2781 4.70159 17.215L4.34717 16.5062C4.31097 16.4338 4.28236 16.3579 4.26177 16.2796L4.04694 15.4633C4.02126 15.3657 4.00825 15.2651 4.00825 15.1642V14.0912C4.00825 13.9951 4.02003 13.8994 4.04334 13.8061L4.21156 13.1333C4.22747 13.0696 4.24871 13.0074 4.27502 12.9472L4.63656 12.1208L5.01899 11.4994C5.06703 11.4213 5.12406 11.3491 5.18891 11.2843L5.65981 10.8133L6.15912 10.4139C6.20675 10.3758 6.2573 10.3415 6.31026 10.3112L7.03416 9.89755L8.48905 9.25737L8.4895 9.25719L10.5936 8.32204L10.5943 8.3217L14.8609 6.39297L14.8614 6.39273L16.9071 5.45758L16.9078 5.45726L18.5443 4.69746L19.5921 4.2085C20.0704 3.98529 20.3878 3.51775 20.4188 2.99079L20.4315 2.7748Z" fill="white" stroke="white"/>
<path d="M27.1222 8.21009L27.1229 8.20977L29.1531 7.36384C29.2587 7.31987 29.3449 7.23945 29.3958 7.13725C29.429 7.07113 29.4463 6.99821 29.4463 6.9243V5.23616C29.4463 5.1732 29.441 5.11035 29.4306 5.04825L29.4173 4.96835C29.387 4.78535 29.3 4.61645 29.1688 4.48527L29.1639 4.48041C29.0818 4.39838 28.9841 4.33385 28.8762 4.29077C28.709 4.22389 28.5251 4.2114 28.3503 4.25505L28.3033 4.26681L28.2871 4.27089L28.2714 4.27697L26.9273 4.80298L26.9254 4.80371L24.2953 5.85575L24.293 5.85669L24.2906 5.85769L22.785 6.49415L20.9189 7.24058L20.9177 7.2411L18.7439 8.12419L18.7434 8.1244L16.112 9.18756L16.1115 9.18775L14.2426 9.94698L12.6075 10.5893L12.605 10.5903L12.6026 10.5914L11.1999 11.1758L11.1848 11.1821L11.1707 11.1901L10.7065 11.4554L10.6892 11.4653C10.529 11.5568 10.4241 11.6167 10.3289 11.6928C10.2337 11.7688 10.152 11.8579 10.0274 11.9939L10.0139 12.0086L9.89382 12.1396L9.8817 12.1529C9.76981 12.2749 9.69652 12.3548 9.63445 12.445C9.57238 12.5352 9.52391 12.6322 9.44988 12.7803L9.44185 12.7963L9.38307 12.9139L9.37678 12.9265C9.31867 13.0426 9.28064 13.1187 9.2508 13.1993C9.22099 13.28 9.20038 13.3625 9.16887 13.4885L9.16548 13.5021L9.13768 13.6132L9.13386 13.6286C9.09854 13.7698 9.07539 13.8623 9.06364 13.9579C9.05186 14.0535 9.05188 14.1489 9.05188 14.2945V14.3102V14.5234V14.5398C9.05186 14.6909 9.05186 14.7899 9.06453 14.889C9.06531 14.8953 9.06617 14.9016 9.06706 14.9079C9.08091 15.0068 9.10695 15.1023 9.14674 15.2481L9.15105 15.2639L9.15513 15.2789C9.19285 15.4173 9.21757 15.5079 9.25339 15.5958C9.25566 15.6014 9.25798 15.607 9.26031 15.6126C9.29715 15.7 9.34375 15.7816 9.41495 15.9061L9.42265 15.9196L9.55563 16.1523L9.56415 16.1672C9.64268 16.3047 9.69415 16.3948 9.75771 16.478C9.82127 16.5612 9.89461 16.6345 10.0066 16.7465L10.0187 16.7586L10.0492 16.7891L10.0556 16.7955C10.1151 16.855 10.1541 16.894 10.1962 16.9305C10.2383 16.967 10.2824 17.0001 10.3497 17.0506L10.3569 17.056L10.5251 17.1821L10.5325 17.1877C10.6009 17.239 10.6457 17.2726 10.6933 17.3032C10.7409 17.3338 10.7901 17.3606 10.8652 17.4016L10.8733 17.406L11.3506 17.6663L11.3635 17.6734L11.3771 17.6789L12.9552 18.3218L12.9556 18.322L17.2806 20.0754L19.4431 20.9521L19.4443 20.9525L21.1964 21.6534L21.1977 21.6539L23.0541 22.4081L23.7414 22.7747C23.8333 22.8237 23.8674 22.8421 23.8994 22.8624C23.9313 22.8827 23.9624 22.9058 24.0457 22.9683L24.3824 23.2208C24.4881 23.3001 24.5272 23.3297 24.5626 23.3621C24.598 23.3945 24.631 23.4307 24.7193 23.5289L24.9481 23.7831C25.0138 23.8562 25.0381 23.8834 25.06 23.9116C25.0819 23.9398 25.1023 23.97 25.1568 24.0518L25.3917 24.4041C25.4578 24.5033 25.4822 24.5403 25.503 24.5783C25.5237 24.6163 25.5417 24.6567 25.5895 24.766L25.8112 25.2728C25.8606 25.3856 25.8787 25.4276 25.8928 25.47C25.9069 25.5125 25.9177 25.5569 25.9459 25.6767L26.0558 26.144C26.0918 26.2969 26.1048 26.3538 26.1113 26.4104C26.1179 26.4671 26.1183 26.5254 26.1183 26.6825V27.4168C26.1183 27.5757 26.1179 27.6347 26.1112 27.6922C26.1044 27.7494 26.0912 27.8069 26.0544 27.9615L25.903 28.5969C25.8668 28.749 25.853 28.8054 25.8336 28.8587C25.8142 28.912 25.7886 28.9642 25.7188 29.104L25.5677 29.406L25.2011 29.9763C25.1224 30.0986 25.0929 30.1438 25.0598 30.1851C25.0267 30.2261 24.9887 30.2645 24.8859 30.3674L24.5943 30.659C24.515 30.7381 24.4855 30.7674 24.4544 30.7938C24.4233 30.8202 24.3896 30.8445 24.2984 30.9098L23.8563 31.2254C23.7525 31.2996 23.7138 31.327 23.6737 31.3503C23.6337 31.3735 23.5908 31.3936 23.475 31.4469L22.1809 32.0442L20.7219 32.6863L20.7203 32.6868L19.0253 33.4468L19.0241 33.4473L17.0966 34.3233L17.0953 34.3241L15.4016 35.0833H15.4013L14.2323 35.6095L14.2314 35.6097L12.3027 36.4865L12.3004 36.4875L12.2982 36.4886L10.3054 37.4411C9.93972 37.5723 9.6948 37.9192 9.6948 38.309V40.1111C9.6948 40.1921 9.71366 40.2721 9.7499 40.3447C9.7905 40.4257 9.8516 40.4949 9.92713 40.5453L10.0482 40.626C10.2033 40.7295 10.3855 40.7846 10.5719 40.7846C10.7032 40.7846 10.8329 40.7572 10.953 40.7044L12.8085 39.8857L12.8106 39.8849L14.6224 39.0666L14.6254 39.0651L15.4985 38.6578L15.5021 38.6559L17.1934 37.8978L17.1952 37.897L17.197 37.8962L18.0707 37.4887L20.3471 36.4962V36.4964L20.3503 36.4949L22.8051 35.3843L22.8055 35.384L24.7343 34.5075L24.7453 34.5025L24.7558 34.4965L25.574 34.0289L25.5849 34.0226L25.5951 34.0156L26.406 33.4429L26.4151 33.4366C26.4978 33.3784 26.5519 33.34 26.6032 33.2969C26.6545 33.2535 26.7015 33.2067 26.7731 33.1351L26.7808 33.1273L27.3241 32.5842L27.3361 32.5721L27.3463 32.5586L27.931 31.7988L27.9386 31.7886L27.9454 31.7779L28.4232 31.0135L28.4284 31.0049C28.4768 30.9278 28.5084 30.8771 28.5363 30.8236C28.5643 30.77 28.5878 30.7152 28.6238 30.6313L28.6278 30.6224L28.8992 29.9891L28.9052 29.9748L28.9097 29.9599L29.2017 28.9663L29.2059 28.9522L29.2085 28.9379L29.3441 28.1695L29.3459 28.1585C29.364 28.0566 29.3757 27.9898 29.3817 27.9213C29.3877 27.8529 29.3877 27.7849 29.3877 27.6812V27.6703V26.2574V26.2462C29.3877 26.1425 29.3877 26.0747 29.3817 26.0063C29.3757 25.9379 29.364 25.8711 29.3459 25.769L29.3441 25.758L29.242 25.1792L29.2404 25.1699C29.2252 25.084 29.2153 25.0278 29.2009 24.9717C29.1868 24.9157 29.1688 24.8615 29.1411 24.7788L29.1382 24.7698L28.9068 24.0757L28.9021 24.0615L28.8958 24.0478L28.4867 23.1712L28.4804 23.1579L28.4728 23.1454L27.9558 22.2993L27.9495 22.2892C27.8926 22.1959 27.8552 22.1348 27.8119 22.0768C27.7688 22.0187 27.7207 21.9655 27.6475 21.8842L27.6397 21.8754L27.275 21.4704L27.2705 21.4653L27.2656 21.4604L26.9734 21.1682L26.9686 21.1633L26.9634 21.1587L26.379 20.6327L26.3703 20.6249L26.361 20.6179L25.6596 20.0919L25.6466 20.0821L25.6325 20.074L24.8142 19.6064L24.8012 19.599L24.7875 19.5931L23.151 18.8918L23.1486 18.8908L23.1463 18.8898L14.4985 15.384L14.4962 15.383L12.4684 14.5381C12.451 14.5309 12.4353 14.5203 12.422 14.507L12.4194 14.5044C12.3941 14.4791 12.3798 14.4447 12.3798 14.4089C12.3798 14.3577 12.4087 14.311 12.4545 14.2881L13.0447 13.993L14.6119 13.3545L14.6135 13.3539L17.5342 12.1855L17.5365 12.1846L17.5388 12.1837L20.1671 11.074L20.1689 11.0732L22.8544 9.96396L22.8556 9.96349L24.4325 9.32106L24.4337 9.32057L27.1222 8.21009Z" fill="#B50000" stroke="#B50000"/>
</svg>
