<svg width="21" height="14" viewBox="0 0 21 14" fill="none" xmlns="http://www.w3.org/2000/svg">
<path d="M19.6691 0H0.727964C0.327056 0 0 0.355544 0 0.791371V1.62862C0 2.06445 0.327056 2.41999 0.727964 2.41999H1.10074C1.15701 3.10814 1.64935 3.65866 2.27884 3.73894V6.41507C2.27884 6.86237 2.53557 7.24468 2.89779 7.3976L3.5308 11.4768C3.65389 12.2796 4.03721 12.7613 4.55417 12.7613H4.67374V13.2354H4.4557C4.26228 13.2354 4.10403 13.4074 4.10403 13.6177C4.10403 13.828 4.26228 14 4.4557 14H5.59512C5.78854 14 5.9468 13.828 5.9468 13.6177C5.9468 13.4074 5.78854 13.2354 5.59512 13.2354H5.37709V12.7613H5.49665C6.06285 12.7613 6.52354 12.1573 6.52354 11.4156V7.09175V6.22392H13.8735V7.09175V11.4156C13.8735 12.1573 14.3342 12.7613 14.9004 12.7613H15.02V13.2354H14.8019C14.6085 13.2354 14.4503 13.4074 14.4503 13.6177C14.4503 13.828 14.6085 14 14.8019 14H15.9414C16.1348 14 16.293 13.828 16.293 13.6177C16.293 13.4074 16.1348 13.2354 15.9414 13.2354H15.7233V12.7613H15.8429C16.3598 12.7613 16.7397 12.2835 16.8663 11.4768L17.4993 7.3976C17.8615 7.24085 18.1182 6.86237 18.1182 6.41507V3.73894C18.7477 3.65866 19.2401 3.10814 19.2963 2.41999H19.6691C20.07 2.41999 20.3971 2.06445 20.3971 1.62862V0.791371C20.3971 0.355544 20.07 0 19.6691 0ZM5.82019 5.84162V6.70945H3.24946C3.10176 6.70562 2.98219 6.57564 2.98219 6.41507V3.75423H5.82019V5.84162ZM5.82019 11.4156C5.82019 11.7482 5.64787 11.9967 5.49665 11.9967H4.55065C4.41702 11.9967 4.27987 11.7253 4.2236 11.3506L3.62224 7.47406H5.82019V11.4156ZM6.52354 5.45931V3.75423H13.8735V5.45931H6.52354ZM17.4149 3.75423V6.41507C17.4149 6.57564 17.2918 6.70945 17.1441 6.70945H14.5769V3.75806H17.4149V3.75423ZM16.1735 11.3506C16.1172 11.7253 15.9765 11.9967 15.8464 11.9967H14.9004C14.7492 11.9967 14.5769 11.7482 14.5769 11.4156V7.47406H16.7748L16.1735 11.3506ZM17.96 2.98962H17.7665H14.2252H6.17187H2.63052H2.4371C2.12411 2.98962 1.86035 2.74495 1.80408 2.41999H18.5895C18.5367 2.74495 18.2729 2.98962 17.96 2.98962ZM19.6937 1.62862C19.6937 1.64391 19.6796 1.65538 19.6691 1.65538H18.9552H1.44186H0.727964C0.717414 1.65538 0.703347 1.64009 0.703347 1.62862V0.791371C0.703347 0.776079 0.717414 0.764609 0.727964 0.764609H19.6656C19.6796 0.764609 19.6902 0.779902 19.6902 0.791371V1.62862H19.6937Z" fill="white"/>
</svg>
